<svg xmlns="http://www.w3.org/2000/svg" width="1em" height="1em" fill="currentColor" viewBox="0 0 1000 1000">
<path fill-rule="evenodd" clip-rule="evenodd" d="M648.055 320.452L568.135 464.631L567.82 467.047L665.803 448.752L714.01 263.366L651.126 275.363L597.315 240.683L591.62 284.393L648.055 320.452ZM422 490.74L423.676 488.97L333.653 446.178L185.684 567.824L243.611 595.08L266.76 654.767L297.059 622.753L272.597 560.408L273.153 560.149L273.079 559.958L340.052 528.954L422 490.74ZM331.243 709.874L353.222 765.888L434.934 975.852L435.409 975.35L435.606 975.852L547.632 856.551L711.431 847.853L711.037 847.125L711.746 847.086L645.618 725.679L930.83 708.616L851.78 564.834L893.698 406.2L757.8 431.574L829.707 155.051L668.535 185.801L530.618 96.9143L512.756 234.003L271.986 80.1646L251.426 242.95L124.271 346.65L249.129 406L28.4176 587.447L176.882 657.305L236.214 810.281L331.243 709.874ZM395.785 641.679L432.124 735.054L465.494 820.099L494.363 789.525L509.363 773.55L572.983 769.995L552.034 731.278L485.346 735.267L465.257 571.65L464.09 569.508L395.785 641.679ZM321.423 346.567L373.156 304.037L485.581 424.599L487.785 425.646L500.664 326.806L339.247 223.67L331.225 287.184L281.613 327.644L321.423 346.567ZM555.57 555.512L717.392 586.967L734.247 522.149L777.576 514.059L761.221 575.953L792.064 632.053L600.854 643.492L553.461 555.905L555.57 555.512Z"></path>
</svg>
